# xmcd CD database file generated by Grip 3.2.0
# 
# Track frame offsets:
#       183
#       21715
#       39923
#       52515
#       66908
#       82445
#       101850
#       119668
#       139583
#       159008
# 
# Disc length: 2349 seconds
# 
# Revision: 2
# Processed by: cddbd v1.5.1PL0 Copyright (c) Steve Scherf et al.
# Submitted via: Grip 3.2.0
# 
DISCID=86092b0a
DTITLE=Michael Martin Murphy - Land of Enchantment
DYEAR=1989
DGENRE=Country
TTITLE0=Never Givin' Up On Love
TTITLE1=Got To Pay The Fiddler
TTITLE2=Route 66
TTITLE3=Land Of Enchantment
TTITLE4=Jukebox
TTITLE5=Woodsmoke In The Wind
TTITLE6=The Heart Knows The Truth
TTITLE7=Land Of The Navajo
TTITLE8=Desperation Road
TTITLE9=Family Tree
EXTD=
EXTT0=
EXTT1=
EXTT2=
EXTT3=
EXTT4=
EXTT5=
EXTT6=
EXTT7=
EXTT8=
EXTT9=
PLAYORDER=
